<mxfile host="app.diagrams.net" modified="2020-10-12T07:49:49.991Z" agent="5.0 (Windows NT 10.0; Win64; x64) AppleWebKit/537.36 (KHTML, like Gecko) Chrome/85.0.4183.121 Safari/537.36" etag="k58U4UsTtgwZm9gl__9I" version="13.7.9" type="github">
  <diagram id="C5RBs43oDa-KdzZeNtuy" name="Page-1">
    <mxGraphModel dx="1201" dy="261" grid="1" gridSize="10" guides="1" tooltips="1" connect="1" arrows="1" fold="1" page="1" pageScale="1" pageWidth="827" pageHeight="1169" math="0" shadow="0">
      <root>
        <mxCell id="WIyWlLk6GJQsqaUBKTNV-0" />
        <mxCell id="WIyWlLk6GJQsqaUBKTNV-1" parent="WIyWlLk6GJQsqaUBKTNV-0" />
        <mxCell id="dX_ZzNvs-uGpYZn4bQjM-12" style="edgeStyle=orthogonalEdgeStyle;rounded=0;orthogonalLoop=1;jettySize=auto;html=1;" edge="1" parent="WIyWlLk6GJQsqaUBKTNV-1" source="WIyWlLk6GJQsqaUBKTNV-3" target="dX_ZzNvs-uGpYZn4bQjM-8">
          <mxGeometry relative="1" as="geometry" />
        </mxCell>
        <mxCell id="WIyWlLk6GJQsqaUBKTNV-3" value="&lt;font style=&quot;vertical-align: inherit&quot;&gt;&lt;font style=&quot;vertical-align: inherit&quot;&gt;&lt;font style=&quot;vertical-align: inherit&quot;&gt;&lt;font style=&quot;vertical-align: inherit&quot;&gt;&lt;font style=&quot;vertical-align: inherit&quot;&gt;&lt;font style=&quot;vertical-align: inherit&quot;&gt;Super Xandão acorda de seu castelo&lt;/font&gt;&lt;/font&gt;&lt;/font&gt;&lt;/font&gt;&lt;/font&gt;&lt;/font&gt;" style="rounded=1;whiteSpace=wrap;html=1;fontSize=12;glass=0;strokeWidth=1;shadow=0;" parent="WIyWlLk6GJQsqaUBKTNV-1" vertex="1">
          <mxGeometry x="160" y="50" width="120" height="40" as="geometry" />
        </mxCell>
        <mxCell id="dX_ZzNvs-uGpYZn4bQjM-1" style="edgeStyle=orthogonalEdgeStyle;rounded=0;orthogonalLoop=1;jettySize=auto;html=1;exitX=0;exitY=0.5;exitDx=0;exitDy=0;" edge="1" parent="WIyWlLk6GJQsqaUBKTNV-1" source="WIyWlLk6GJQsqaUBKTNV-6">
          <mxGeometry relative="1" as="geometry">
            <mxPoint x="70" y="300" as="targetPoint" />
          </mxGeometry>
        </mxCell>
        <mxCell id="dX_ZzNvs-uGpYZn4bQjM-14" style="edgeStyle=orthogonalEdgeStyle;rounded=0;orthogonalLoop=1;jettySize=auto;html=1;entryX=0;entryY=0.5;entryDx=0;entryDy=0;" edge="1" parent="WIyWlLk6GJQsqaUBKTNV-1" source="WIyWlLk6GJQsqaUBKTNV-6" target="dX_ZzNvs-uGpYZn4bQjM-7">
          <mxGeometry relative="1" as="geometry" />
        </mxCell>
        <mxCell id="WIyWlLk6GJQsqaUBKTNV-6" value="&lt;font style=&quot;vertical-align: inherit&quot;&gt;&lt;font style=&quot;vertical-align: inherit&quot;&gt;&lt;font style=&quot;vertical-align: inherit&quot;&gt;&lt;font style=&quot;vertical-align: inherit&quot;&gt;&lt;font style=&quot;vertical-align: inherit&quot;&gt;&lt;font style=&quot;vertical-align: inherit&quot;&gt;&lt;font style=&quot;vertical-align: inherit&quot;&gt;&lt;font style=&quot;vertical-align: inherit&quot;&gt;&lt;font style=&quot;vertical-align: inherit&quot;&gt;&lt;font style=&quot;vertical-align: inherit&quot;&gt;Ele saiu para caçar demonios&lt;/font&gt;&lt;/font&gt;&lt;/font&gt;&lt;/font&gt;&lt;/font&gt;&lt;/font&gt;&lt;/font&gt;&lt;/font&gt;&lt;/font&gt;&lt;/font&gt;" style="rhombus;whiteSpace=wrap;html=1;shadow=0;fontFamily=Helvetica;fontSize=12;align=center;strokeWidth=1;spacing=6;spacingTop=-4;" parent="WIyWlLk6GJQsqaUBKTNV-1" vertex="1">
          <mxGeometry x="135" y="240" width="125" height="100" as="geometry" />
        </mxCell>
        <mxCell id="dX_ZzNvs-uGpYZn4bQjM-2" value="&lt;font style=&quot;vertical-align: inherit&quot;&gt;&lt;font style=&quot;vertical-align: inherit&quot;&gt;O MUNDO FOI TOMADO&lt;/font&gt;&lt;/font&gt;" style="rounded=0;whiteSpace=wrap;html=1;" vertex="1" parent="WIyWlLk6GJQsqaUBKTNV-1">
          <mxGeometry x="-20" y="270" width="120" height="60" as="geometry" />
        </mxCell>
        <mxCell id="dX_ZzNvs-uGpYZn4bQjM-4" value="&lt;font style=&quot;vertical-align: inherit&quot;&gt;&lt;font style=&quot;vertical-align: inherit&quot;&gt;sim&lt;/font&gt;&lt;/font&gt;" style="text;html=1;align=center;verticalAlign=middle;resizable=0;points=[];autosize=1;" vertex="1" parent="WIyWlLk6GJQsqaUBKTNV-1">
          <mxGeometry x="280" y="260" width="30" height="20" as="geometry" />
        </mxCell>
        <mxCell id="dX_ZzNvs-uGpYZn4bQjM-15" style="edgeStyle=orthogonalEdgeStyle;rounded=0;orthogonalLoop=1;jettySize=auto;html=1;" edge="1" parent="WIyWlLk6GJQsqaUBKTNV-1" source="dX_ZzNvs-uGpYZn4bQjM-7">
          <mxGeometry relative="1" as="geometry">
            <mxPoint x="380" y="400" as="targetPoint" />
          </mxGeometry>
        </mxCell>
        <mxCell id="dX_ZzNvs-uGpYZn4bQjM-7" value="&lt;font style=&quot;vertical-align: inherit&quot;&gt;&lt;font style=&quot;vertical-align: inherit&quot;&gt;Super Xandão avistou um demonio lvl 3&lt;/font&gt;&lt;/font&gt;" style="rounded=1;whiteSpace=wrap;html=1;" vertex="1" parent="WIyWlLk6GJQsqaUBKTNV-1">
          <mxGeometry x="320" y="270" width="120" height="60" as="geometry" />
        </mxCell>
        <mxCell id="dX_ZzNvs-uGpYZn4bQjM-13" style="edgeStyle=orthogonalEdgeStyle;rounded=0;orthogonalLoop=1;jettySize=auto;html=1;" edge="1" parent="WIyWlLk6GJQsqaUBKTNV-1" source="dX_ZzNvs-uGpYZn4bQjM-8" target="WIyWlLk6GJQsqaUBKTNV-6">
          <mxGeometry relative="1" as="geometry" />
        </mxCell>
        <mxCell id="dX_ZzNvs-uGpYZn4bQjM-8" value="&lt;font style=&quot;vertical-align: inherit&quot;&gt;&lt;font style=&quot;vertical-align: inherit&quot;&gt;São exatamente 3:33 da manhã&lt;/font&gt;&lt;/font&gt;" style="rounded=0;whiteSpace=wrap;html=1;" vertex="1" parent="WIyWlLk6GJQsqaUBKTNV-1">
          <mxGeometry x="150" y="130" width="120" height="50" as="geometry" />
        </mxCell>
        <mxCell id="dX_ZzNvs-uGpYZn4bQjM-26" style="edgeStyle=orthogonalEdgeStyle;rounded=0;orthogonalLoop=1;jettySize=auto;html=1;" edge="1" parent="WIyWlLk6GJQsqaUBKTNV-1" source="dX_ZzNvs-uGpYZn4bQjM-25">
          <mxGeometry relative="1" as="geometry">
            <mxPoint x="520" y="440" as="targetPoint" />
          </mxGeometry>
        </mxCell>
        <mxCell id="dX_ZzNvs-uGpYZn4bQjM-32" style="edgeStyle=orthogonalEdgeStyle;rounded=0;orthogonalLoop=1;jettySize=auto;html=1;entryX=0.425;entryY=1.073;entryDx=0;entryDy=0;entryPerimeter=0;" edge="1" parent="WIyWlLk6GJQsqaUBKTNV-1" source="dX_ZzNvs-uGpYZn4bQjM-25" target="dX_ZzNvs-uGpYZn4bQjM-2">
          <mxGeometry relative="1" as="geometry" />
        </mxCell>
        <mxCell id="dX_ZzNvs-uGpYZn4bQjM-25" value="&lt;span&gt;Super Xandão encara o demonio?&lt;/span&gt;" style="rhombus;whiteSpace=wrap;html=1;" vertex="1" parent="WIyWlLk6GJQsqaUBKTNV-1">
          <mxGeometry x="300" y="400" width="160" height="80" as="geometry" />
        </mxCell>
        <mxCell id="dX_ZzNvs-uGpYZn4bQjM-34" value="não" style="text;html=1;align=center;verticalAlign=middle;resizable=0;points=[];autosize=1;" vertex="1" parent="WIyWlLk6GJQsqaUBKTNV-1">
          <mxGeometry x="240" y="420" width="40" height="20" as="geometry" />
        </mxCell>
        <mxCell id="dX_ZzNvs-uGpYZn4bQjM-35" value="sim" style="text;html=1;align=center;verticalAlign=middle;resizable=0;points=[];autosize=1;" vertex="1" parent="WIyWlLk6GJQsqaUBKTNV-1">
          <mxGeometry x="465" y="420" width="30" height="20" as="geometry" />
        </mxCell>
        <mxCell id="dX_ZzNvs-uGpYZn4bQjM-37" style="edgeStyle=orthogonalEdgeStyle;rounded=0;orthogonalLoop=1;jettySize=auto;html=1;" edge="1" parent="WIyWlLk6GJQsqaUBKTNV-1" source="dX_ZzNvs-uGpYZn4bQjM-36">
          <mxGeometry relative="1" as="geometry">
            <mxPoint x="740" y="440" as="targetPoint" />
          </mxGeometry>
        </mxCell>
        <mxCell id="dX_ZzNvs-uGpYZn4bQjM-39" style="edgeStyle=orthogonalEdgeStyle;rounded=0;orthogonalLoop=1;jettySize=auto;html=1;" edge="1" parent="WIyWlLk6GJQsqaUBKTNV-1" source="dX_ZzNvs-uGpYZn4bQjM-36">
          <mxGeometry relative="1" as="geometry">
            <mxPoint x="585" y="560" as="targetPoint" />
          </mxGeometry>
        </mxCell>
        <mxCell id="dX_ZzNvs-uGpYZn4bQjM-41" style="edgeStyle=orthogonalEdgeStyle;rounded=0;orthogonalLoop=1;jettySize=auto;html=1;" edge="1" parent="WIyWlLk6GJQsqaUBKTNV-1" source="dX_ZzNvs-uGpYZn4bQjM-36" target="dX_ZzNvs-uGpYZn4bQjM-42">
          <mxGeometry relative="1" as="geometry">
            <mxPoint x="650" y="290" as="targetPoint" />
          </mxGeometry>
        </mxCell>
        <mxCell id="dX_ZzNvs-uGpYZn4bQjM-36" value="Super Xandão derrotou ou não?" style="rhombus;whiteSpace=wrap;html=1;" vertex="1" parent="WIyWlLk6GJQsqaUBKTNV-1">
          <mxGeometry x="520" y="400" width="130" height="80" as="geometry" />
        </mxCell>
        <mxCell id="dX_ZzNvs-uGpYZn4bQjM-48" style="edgeStyle=orthogonalEdgeStyle;rounded=0;orthogonalLoop=1;jettySize=auto;html=1;" edge="1" parent="WIyWlLk6GJQsqaUBKTNV-1" source="dX_ZzNvs-uGpYZn4bQjM-38" target="dX_ZzNvs-uGpYZn4bQjM-49">
          <mxGeometry relative="1" as="geometry">
            <mxPoint x="800" y="550" as="targetPoint" />
          </mxGeometry>
        </mxCell>
        <mxCell id="dX_ZzNvs-uGpYZn4bQjM-38" value="derrotou de forma justa" style="rounded=0;whiteSpace=wrap;html=1;" vertex="1" parent="WIyWlLk6GJQsqaUBKTNV-1">
          <mxGeometry x="740" y="410" width="120" height="60" as="geometry" />
        </mxCell>
        <mxCell id="dX_ZzNvs-uGpYZn4bQjM-46" style="edgeStyle=orthogonalEdgeStyle;rounded=0;orthogonalLoop=1;jettySize=auto;html=1;" edge="1" parent="WIyWlLk6GJQsqaUBKTNV-1" source="dX_ZzNvs-uGpYZn4bQjM-40" target="dX_ZzNvs-uGpYZn4bQjM-47">
          <mxGeometry relative="1" as="geometry">
            <mxPoint x="580" y="690" as="targetPoint" />
          </mxGeometry>
        </mxCell>
        <mxCell id="dX_ZzNvs-uGpYZn4bQjM-40" value="ESTRAÇALHOU O DEMONIO" style="rounded=0;whiteSpace=wrap;html=1;" vertex="1" parent="WIyWlLk6GJQsqaUBKTNV-1">
          <mxGeometry x="520" y="555" width="120" height="60" as="geometry" />
        </mxCell>
        <mxCell id="dX_ZzNvs-uGpYZn4bQjM-42" value="perdeu a batalha" style="rounded=0;whiteSpace=wrap;html=1;" vertex="1" parent="WIyWlLk6GJQsqaUBKTNV-1">
          <mxGeometry x="590" y="260" width="120" height="60" as="geometry" />
        </mxCell>
        <mxCell id="dX_ZzNvs-uGpYZn4bQjM-43" value="1,2" style="text;html=1;align=center;verticalAlign=middle;resizable=0;points=[];autosize=1;" vertex="1" parent="WIyWlLk6GJQsqaUBKTNV-1">
          <mxGeometry x="540" y="360" width="30" height="20" as="geometry" />
        </mxCell>
        <mxCell id="dX_ZzNvs-uGpYZn4bQjM-44" value="3,4" style="text;html=1;align=center;verticalAlign=middle;resizable=0;points=[];autosize=1;" vertex="1" parent="WIyWlLk6GJQsqaUBKTNV-1">
          <mxGeometry x="685" y="420" width="30" height="20" as="geometry" />
        </mxCell>
        <mxCell id="dX_ZzNvs-uGpYZn4bQjM-45" value="5,6" style="text;html=1;align=center;verticalAlign=middle;resizable=0;points=[];autosize=1;" vertex="1" parent="WIyWlLk6GJQsqaUBKTNV-1">
          <mxGeometry x="595" y="510" width="30" height="20" as="geometry" />
        </mxCell>
        <mxCell id="dX_ZzNvs-uGpYZn4bQjM-47" value="outros demônios ficaram com medo e sumiram, mundo salvo, por hora" style="rounded=0;whiteSpace=wrap;html=1;" vertex="1" parent="WIyWlLk6GJQsqaUBKTNV-1">
          <mxGeometry x="520" y="660" width="120" height="60" as="geometry" />
        </mxCell>
        <mxCell id="dX_ZzNvs-uGpYZn4bQjM-50" style="edgeStyle=orthogonalEdgeStyle;rounded=0;orthogonalLoop=1;jettySize=auto;html=1;entryX=0.5;entryY=0;entryDx=0;entryDy=0;" edge="1" parent="WIyWlLk6GJQsqaUBKTNV-1" source="dX_ZzNvs-uGpYZn4bQjM-49" target="dX_ZzNvs-uGpYZn4bQjM-53">
          <mxGeometry relative="1" as="geometry">
            <mxPoint x="920" y="760" as="targetPoint" />
          </mxGeometry>
        </mxCell>
        <mxCell id="dX_ZzNvs-uGpYZn4bQjM-49" value="mais um demonio surge, agora mais forte (lvl 4)" style="rounded=0;whiteSpace=wrap;html=1;" vertex="1" parent="WIyWlLk6GJQsqaUBKTNV-1">
          <mxGeometry x="740" y="520" width="120" height="60" as="geometry" />
        </mxCell>
        <mxCell id="dX_ZzNvs-uGpYZn4bQjM-56" style="edgeStyle=orthogonalEdgeStyle;rounded=0;orthogonalLoop=1;jettySize=auto;html=1;entryX=0;entryY=0.5;entryDx=0;entryDy=0;" edge="1" parent="WIyWlLk6GJQsqaUBKTNV-1" source="dX_ZzNvs-uGpYZn4bQjM-53" target="dX_ZzNvs-uGpYZn4bQjM-2">
          <mxGeometry relative="1" as="geometry" />
        </mxCell>
        <mxCell id="dX_ZzNvs-uGpYZn4bQjM-57" style="edgeStyle=orthogonalEdgeStyle;rounded=0;orthogonalLoop=1;jettySize=auto;html=1;" edge="1" parent="WIyWlLk6GJQsqaUBKTNV-1" source="dX_ZzNvs-uGpYZn4bQjM-53">
          <mxGeometry relative="1" as="geometry">
            <mxPoint x="1080" y="810" as="targetPoint" />
          </mxGeometry>
        </mxCell>
        <mxCell id="dX_ZzNvs-uGpYZn4bQjM-53" value="Super Xandão encara o demonio?" style="rhombus;whiteSpace=wrap;html=1;" vertex="1" parent="WIyWlLk6GJQsqaUBKTNV-1">
          <mxGeometry x="840" y="770" width="160" height="80" as="geometry" />
        </mxCell>
        <mxCell id="dX_ZzNvs-uGpYZn4bQjM-55" value="não" style="text;html=1;align=center;verticalAlign=middle;resizable=0;points=[];autosize=1;" vertex="1" parent="WIyWlLk6GJQsqaUBKTNV-1">
          <mxGeometry x="787" y="780" width="40" height="20" as="geometry" />
        </mxCell>
        <mxCell id="dX_ZzNvs-uGpYZn4bQjM-58" value="sim" style="text;html=1;align=center;verticalAlign=middle;resizable=0;points=[];autosize=1;" vertex="1" parent="WIyWlLk6GJQsqaUBKTNV-1">
          <mxGeometry x="1035" y="790" width="30" height="20" as="geometry" />
        </mxCell>
        <mxCell id="dX_ZzNvs-uGpYZn4bQjM-62" style="edgeStyle=orthogonalEdgeStyle;rounded=0;orthogonalLoop=1;jettySize=auto;html=1;" edge="1" parent="WIyWlLk6GJQsqaUBKTNV-1" source="dX_ZzNvs-uGpYZn4bQjM-60" target="dX_ZzNvs-uGpYZn4bQjM-63">
          <mxGeometry relative="1" as="geometry">
            <mxPoint x="1160" y="690" as="targetPoint" />
          </mxGeometry>
        </mxCell>
        <mxCell id="dX_ZzNvs-uGpYZn4bQjM-65" style="edgeStyle=orthogonalEdgeStyle;rounded=0;orthogonalLoop=1;jettySize=auto;html=1;" edge="1" parent="WIyWlLk6GJQsqaUBKTNV-1" source="dX_ZzNvs-uGpYZn4bQjM-60" target="dX_ZzNvs-uGpYZn4bQjM-66">
          <mxGeometry relative="1" as="geometry">
            <mxPoint x="1340" y="810" as="targetPoint" />
          </mxGeometry>
        </mxCell>
        <mxCell id="dX_ZzNvs-uGpYZn4bQjM-60" value="Super Xandão derrotou o demonio?" style="rhombus;whiteSpace=wrap;html=1;" vertex="1" parent="WIyWlLk6GJQsqaUBKTNV-1">
          <mxGeometry x="1080" y="765" width="160" height="90" as="geometry" />
        </mxCell>
        <mxCell id="dX_ZzNvs-uGpYZn4bQjM-63" value="perdeu a batalha" style="rounded=0;whiteSpace=wrap;html=1;" vertex="1" parent="WIyWlLk6GJQsqaUBKTNV-1">
          <mxGeometry x="1100" y="660" width="120" height="60" as="geometry" />
        </mxCell>
        <mxCell id="dX_ZzNvs-uGpYZn4bQjM-64" value="1,2" style="text;html=1;align=center;verticalAlign=middle;resizable=0;points=[];autosize=1;" vertex="1" parent="WIyWlLk6GJQsqaUBKTNV-1">
          <mxGeometry x="1125" y="730" width="30" height="20" as="geometry" />
        </mxCell>
        <mxCell id="dX_ZzNvs-uGpYZn4bQjM-68" style="edgeStyle=orthogonalEdgeStyle;rounded=0;orthogonalLoop=1;jettySize=auto;html=1;" edge="1" parent="WIyWlLk6GJQsqaUBKTNV-1" source="dX_ZzNvs-uGpYZn4bQjM-66" target="dX_ZzNvs-uGpYZn4bQjM-69">
          <mxGeometry relative="1" as="geometry">
            <mxPoint x="1300" y="980" as="targetPoint" />
          </mxGeometry>
        </mxCell>
        <mxCell id="dX_ZzNvs-uGpYZn4bQjM-66" value="luta justa" style="rounded=0;whiteSpace=wrap;html=1;" vertex="1" parent="WIyWlLk6GJQsqaUBKTNV-1">
          <mxGeometry x="1310" y="780" width="120" height="60" as="geometry" />
        </mxCell>
        <mxCell id="dX_ZzNvs-uGpYZn4bQjM-67" value="3,4,5,6" style="text;html=1;align=center;verticalAlign=middle;resizable=0;points=[];autosize=1;" vertex="1" parent="WIyWlLk6GJQsqaUBKTNV-1">
          <mxGeometry x="1245" y="790" width="50" height="20" as="geometry" />
        </mxCell>
        <mxCell id="dX_ZzNvs-uGpYZn4bQjM-69" value="MUNDO SALVO DE DEMONIOS &lt;br&gt;ENQUANTO SUPER XANDÃO ESTIVER VIVO" style="rounded=0;whiteSpace=wrap;html=1;" vertex="1" parent="WIyWlLk6GJQsqaUBKTNV-1">
          <mxGeometry x="1190" y="950" width="230" height="130" as="geometry" />
        </mxCell>
      </root>
    </mxGraphModel>
  </diagram>
</mxfile>
